<svg width="59" height="188" viewBox="0 0 59 188" fill="none" xmlns="http://www.w3.org/2000/svg">
<path d="M0.292893 7.29289C-0.0976311 7.68342 -0.0976311 8.31658 0.292893 8.70711L6.65685 15.0711C7.04738 15.4616 7.68054 15.4616 8.07107 15.0711C8.46159 14.6805 8.46159 14.0474 8.07107 13.6569L2.41421 8L8.07107 2.34315C8.46159 1.95262 8.46159 1.31946 8.07107 0.928932C7.68054 0.538408 7.04738 0.538408 6.65685 0.928932L0.292893 7.29289ZM1 9H22.7353V7H1V9ZM35.7353 175V20H33.7353V175H35.7353ZM59 186H46.7353V188H59V186ZM33.7353 175C33.7353 182.18 39.5556 188 46.7353 188V186C40.6601 186 35.7353 181.075 35.7353 175H33.7353ZM22.7353 9C28.8104 9 33.7353 13.9249 33.7353 20H35.7353C35.7353 12.8203 29.915 7 22.7353 7V9Z" fill="#0F69AF"/>
</svg>
