<svg width="59" height="145" viewBox="0 0 59 145" fill="none" xmlns="http://www.w3.org/2000/svg">
<path d="M0.292893 7.29289C-0.0976311 7.68342 -0.0976311 8.31658 0.292893 8.70711L6.65685 15.0711C7.04738 15.4616 7.68054 15.4616 8.07107 15.0711C8.46159 14.6805 8.46159 14.0474 8.07107 13.6569L2.41421 8L8.07107 2.34315C8.46159 1.95262 8.46159 1.31946 8.07107 0.928932C7.68054 0.538408 7.04738 0.538408 6.65685 0.928932L0.292893 7.29289ZM1 9H18.7565V7H1V9ZM31.7565 132V20H29.7565V132H31.7565ZM59 143H42.7565V145H59V143ZM29.7565 132C29.7565 139.18 35.5768 145 42.7565 145V143C36.6814 143 31.7565 138.075 31.7565 132H29.7565ZM18.7565 9C24.8317 9 29.7565 13.9249 29.7565 20H31.7565C31.7565 12.8203 25.9362 7 18.7565 7V9Z" fill="#0F69AF"/>
</svg>
