<svg width="375" height="116" viewBox="0 0 375 116" fill="none" xmlns="http://www.w3.org/2000/svg">
<g filter="url(#filter0_d_2018_12)">
<path d="M-30 10H332C349.673 10 364 24.3269 364 42V42C364 59.6731 349.673 74 332 74H32.25C24.3799 74 18 80.3799 18 88.25V88.25C18 96.1201 24.3799 102.5 32.25 102.5H184" stroke="#42B7FF" stroke-width="3"/>
</g>
<g filter="url(#filter1_d_2018_12)">
<path d="M86.5 4.5H335C353.778 4.5 369 20.0291 369 38.8068V38.8068C369 57.5844 353.778 73.1135 335 73.1135L26.6932 73.1135C17.1977 73.1135 9.5 80.8112 9.5 90.3068V90.3068C9.5 99.8023 17.1977 107.5 26.6932 107.5H153" stroke="#42E3FF"/>
</g>
<defs>
<filter id="filter0_d_2018_12" x="-35.9" y="4.6" width="407.3" height="107.3" filterUnits="userSpaceOnUse" color-interpolation-filters="sRGB">
<feFlood flood-opacity="0" result="BackgroundImageFix"/>
<feColorMatrix in="SourceAlpha" type="matrix" values="0 0 0 0 0 0 0 0 0 0 0 0 0 0 0 0 0 0 127 0" result="hardAlpha"/>
<feOffset dy="2"/>
<feGaussianBlur stdDeviation="2.95"/>
<feComposite in2="hardAlpha" operator="out"/>
<feColorMatrix type="matrix" values="0 0 0 0 0.108333 0 0 0 0 1 0 0 0 0 1 0 0 0 0.25 0"/>
<feBlend mode="normal" in2="BackgroundImageFix" result="effect1_dropShadow_2018_12"/>
<feBlend mode="normal" in="SourceGraphic" in2="effect1_dropShadow_2018_12" result="shape"/>
</filter>
<filter id="filter1_d_2018_12" x="3.1" y="0.0999999" width="372.3" height="115.8" filterUnits="userSpaceOnUse" color-interpolation-filters="sRGB">
<feFlood flood-opacity="0" result="BackgroundImageFix"/>
<feColorMatrix in="SourceAlpha" type="matrix" values="0 0 0 0 0 0 0 0 0 0 0 0 0 0 0 0 0 0 127 0" result="hardAlpha"/>
<feOffset dy="2"/>
<feGaussianBlur stdDeviation="2.95"/>
<feComposite in2="hardAlpha" operator="out"/>
<feColorMatrix type="matrix" values="0 0 0 0 0.108333 0 0 0 0 1 0 0 0 0 1 0 0 0 0.25 0"/>
<feBlend mode="normal" in2="BackgroundImageFix" result="effect1_dropShadow_2018_12"/>
<feBlend mode="normal" in="SourceGraphic" in2="effect1_dropShadow_2018_12" result="shape"/>
</filter>
</defs>
</svg>
