<svg width="59" height="74" viewBox="0 0 59 74" fill="none" xmlns="http://www.w3.org/2000/svg">
<path d="M0.292893 7.29289C-0.0976311 7.68342 -0.0976311 8.31658 0.292893 8.70711L6.65685 15.0711C7.04738 15.4616 7.68054 15.4616 8.07107 15.0711C8.46159 14.6805 8.46159 14.0474 8.07107 13.6569L2.41421 8L8.07107 2.34315C8.46159 1.95262 8.46159 1.31946 8.07107 0.928932C7.68054 0.538408 7.04738 0.538408 6.65685 0.928932L0.292893 7.29289ZM1 9H18.5V7H1V9ZM31.5 61V20H29.5V61H31.5ZM58.5 72H42.5V74H58.5V72ZM29.5 61C29.5 68.1797 35.3203 74 42.5 74V72C36.4249 72 31.5 67.0751 31.5 61H29.5ZM18.5 9C24.5751 9 29.5 13.9249 29.5 20H31.5C31.5 12.8203 25.6797 7 18.5 7V9Z" fill="#0F69AF"/>
</svg>
